<?xml version="1.0" encoding="UTF-8"?>
<svg width="309px" height="251px" viewBox="0 0 309 251" version="1.1" xmlns="http://www.w3.org/2000/svg" xmlns:xlink="http://www.w3.org/1999/xlink">
    <title>编组</title>
    <defs>
        <linearGradient x1="17.7748845%" y1="0%" x2="82.5137683%" y2="91.3634877%" id="linearGradient-1">
            <stop stop-color="#FADC4E" offset="0%"></stop>
            <stop stop-color="#FF4763" offset="100%"></stop>
        </linearGradient>
        <circle id="path-2" cx="69" cy="69" r="69"></circle>
        <filter x="-52.6%" y="-63.9%" width="205.2%" height="227.9%" filterUnits="objectBoundingBox" id="filter-4">
            <feGaussianBlur stdDeviation="14" in="SourceGraphic"></feGaussianBlur>
        </filter>
        <filter x="-52.6%" y="-63.9%" width="205.2%" height="227.9%" filterUnits="objectBoundingBox" id="filter-5">
            <feGaussianBlur stdDeviation="14" in="SourceGraphic"></feGaussianBlur>
        </filter>
        <filter x="-11.6%" y="-10.6%" width="123.3%" height="121.1%" filterUnits="objectBoundingBox" id="filter-6">
            <feGaussianBlur stdDeviation="5" in="SourceGraphic"></feGaussianBlur>
        </filter>
        <filter x="-9.9%" y="-11.0%" width="119.9%" height="122.1%" filterUnits="objectBoundingBox" id="filter-7">
            <feGaussianBlur stdDeviation="5" in="SourceGraphic"></feGaussianBlur>
        </filter>
        <path d="M116,0 C160.566925,0 199.26374,25.1329314 218.690237,61.9985868 L224,62 C270.944204,62 309,100.055796 309,147 C309,193.944204 270.944204,232 224,232 L126,232 C124.4503,232 122.910287,231.958528 121.381008,231.876634 C119.597956,231.958829 117.803786,232 116,232 C51.934969,232 0,180.065031 0,116 C0,51.934969 51.934969,0 116,0 Z" id="path-8"></path>
        <filter x="-8.7%" y="-11.6%" width="117.5%" height="123.3%" filterUnits="objectBoundingBox" id="filter-10">
            <feGaussianBlur stdDeviation="9" in="SourceGraphic"></feGaussianBlur>
        </filter>
        <filter x="-38.8%" y="-48.8%" width="177.6%" height="197.5%" filterUnits="objectBoundingBox" id="filter-11">
            <feGaussianBlur stdDeviation="30" in="SourceGraphic"></feGaussianBlur>
        </filter>
        <filter x="-52.7%" y="-66.2%" width="205.3%" height="232.4%" filterUnits="objectBoundingBox" id="filter-12">
            <feGaussianBlur stdDeviation="30" in="SourceGraphic"></feGaussianBlur>
        </filter>
        <filter x="-73.8%" y="-162.7%" width="247.7%" height="425.4%" filterUnits="objectBoundingBox" id="filter-13">
            <feGaussianBlur stdDeviation="32" in="SourceGraphic"></feGaussianBlur>
        </filter>
        <filter x="-23.7%" y="-39.9%" width="147.5%" height="179.8%" filterUnits="objectBoundingBox" id="filter-14">
            <feGaussianBlur stdDeviation="23" in="SourceGraphic"></feGaussianBlur>
        </filter>
        <path d="M116,0 C160.566925,0 199.26374,25.1329314 218.690237,61.9985868 L224,62 C270.944204,62 309,100.055796 309,147 C309,193.944204 270.944204,232 224,232 L126,232 C124.4503,232 122.910287,231.958528 121.381008,231.876634 C119.597956,231.958829 117.803786,232 116,232 C51.934969,232 0,180.065031 0,116 C0,51.934969 51.934969,0 116,0 Z" id="path-15"></path>
        <filter x="-8.3%" y="-11.0%" width="116.5%" height="122.0%" filterUnits="objectBoundingBox" id="filter-16">
            <feGaussianBlur stdDeviation="25" in="SourceAlpha" result="shadowBlurInner1"></feGaussianBlur>
            <feOffset dx="0" dy="1" in="shadowBlurInner1" result="shadowOffsetInner1"></feOffset>
            <feComposite in="shadowOffsetInner1" in2="SourceAlpha" operator="arithmetic" k2="-1" k3="1" result="shadowInnerInner1"></feComposite>
            <feColorMatrix values="0 0 0 0 1   0 0 0 0 1   0 0 0 0 1  0 0 0 1 0" type="matrix" in="shadowInnerInner1"></feColorMatrix>
        </filter>
    </defs>
    <g id="页面-1" stroke="none" stroke-width="1" fill="none" fill-rule="evenodd">
        <g id="画板" transform="translate(-90.000000, -111.000000)">
            <g id="编组" transform="translate(90.000000, 111.000000)">
                <g id="太阳" transform="translate(155.000000, 0.000000)">
                    <mask id="mask-3" fill="white">
                        <use xlink:href="#path-2"></use>
                    </mask>
                    <use id="蒙版" fill="url(#linearGradient-1)" xlink:href="#path-2"></use>
                    <path d="M77,123.891263 C94.7703868,105.726468 111.29342,88.8777457 126.569099,73.3450958 L129.988028,73.3450958 L138,88.539485 L148.998721,112.916162 L113.834246,129.37242 C71.5076952,143.88311 59.2296132,142.056058 77,123.891263 Z" id="路径-4" fill="#FFFFFF" opacity="0.4" filter="url(#filter-4)" mask="url(#mask-3)"></path>
                    <path d="M84,136.891263 C101.770387,118.726468 118.29342,101.877746 133.569099,86.3450958 L136.988028,86.3450958 L145,101.539485 L155.998721,125.916162 L120.834246,142.37242 C78.5076952,156.88311 66.2296132,155.056058 84,136.891263 Z" id="路径-4" fill="#FFFFFF" opacity="0.8" filter="url(#filter-5)" mask="url(#mask-3)"></path>
                    <ellipse id="椭圆形" fill="#000000" opacity="0.08" filter="url(#filter-6)" mask="url(#mask-3)" cx="1.5" cy="103" rx="64.5" ry="71"></ellipse>
                    <ellipse id="椭圆形" fill="#000000" opacity="0.08" filter="url(#filter-7)" mask="url(#mask-3)" cx="75.5" cy="145" rx="75.5" ry="68"></ellipse>
                </g>
                <g id="云朵" transform="translate(0.000000, 19.000000)">
                    <mask id="mask-9" fill="white">
                        <use xlink:href="#path-8"></use>
                    </mask>
                    <use id="蒙版" fill="#FFFFFF" xlink:href="#path-8"></use>
                    <path d="M116,0 C160.566925,0 199.26374,25.1329314 218.690237,61.9985868 L224,62 C270.944204,62 309,100.055796 309,147 C309,193.944204 270.944204,232 224,232 L126,232 C124.4503,232 122.910287,231.958528 121.381008,231.876634 C119.597956,231.958829 117.803786,232 116,232 C51.934969,232 0,180.065031 0,116 C0,51.934969 51.934969,0 116,0 Z" id="椭圆形-2" fill="#000000" opacity="0.304084415" filter="url(#filter-10)" mask="url(#mask-9)"></path>
                    <path d="M112.980229,176.613615 C164.416576,171.349451 212.639968,140.400482 213.528149,83.3291825 C213.537209,82.747071 213.528149,75.0754248 213.528149,74.4892044 C213.528149,16.4288435 160.78424,-7.29025974 102.723879,-7.29025974 C44.6635183,-7.29025974 14.6671814,23.4595613 -13.6327423,89.8160504 C-41.932666,156.172539 61.0192452,181.931473 112.980229,176.613615 Z" id="椭圆形" fill="#FFFFFF" filter="url(#filter-11)" mask="url(#mask-9)"></path>
                    <path d="M239.272131,315.135589 C277.17073,311.256922 312.702006,288.453541 313.356423,246.403076 C313.363098,245.974173 313.356423,240.321659 313.356423,239.889729 C313.356423,197.110517 274.494404,179.634144 231.715193,179.634144 C188.935981,179.634144 166.834506,202.290791 145.982958,251.182638 C125.131409,300.074485 200.986976,319.053817 239.272131,315.135589 Z" id="椭圆形" fill="#FFFFFF" opacity="0.68" filter="url(#filter-12)" mask="url(#mask-9)"></path>
                    <rect id="矩形" fill="#000000" opacity="0.2" filter="url(#filter-13)" mask="url(#mask-9)" x="116" y="141" width="130" height="59"></rect>
                    <path d="M-18.4678243,99.4490995 L50.2204619,126.730751 C60.4166894,137.66981 79.1140497,140.166049 106.312543,134.219468 C133.511036,128.272886 169.250913,113.874683 213.532176,91.0248589 C241.379415,90.5682642 258.781997,93.3763444 265.739922,99.4490995 C272.697848,105.521855 273.978824,117.111977 269.582851,134.219468 L246,200 L41,263.877993 L-18.4678243,99.4490995 Z" id="矩形" fill="#000000" opacity="0.1" filter="url(#filter-14)" mask="url(#mask-9)"></path>
                    <g id="椭圆形-2" opacity="0.0241408575" mask="url(#mask-9)">
                        <use fill="#000000" fill-rule="evenodd" xlink:href="#path-15"></use>
                        <use fill="black" fill-opacity="1" filter="url(#filter-16)" xlink:href="#path-15"></use>
                    </g>
                </g>
            </g>
        </g>
    </g>
</svg>