<svg xmlns="http://www.w3.org/2000/svg" xmlns:xlink="http://www.w3.org/1999/xlink" width="309" height="251" version="1.1" viewBox="0 0 309 251"><title>编组</title><defs><linearGradient id="linearGradient-1" x1="17.775%" x2="82.514%" y1="0%" y2="91.363%"><stop offset="0%" stop-color="#FADC4E"/><stop offset="100%" stop-color="#FF4763"/></linearGradient><circle id="path-2" cx="69" cy="69" r="69"/><filter id="filter-4" width="205.2%" height="227.9%" x="-52.6%" y="-63.9%" filterUnits="objectBoundingBox"><feGaussianBlur in="SourceGraphic" stdDeviation="14"/></filter><filter id="filter-5" width="205.2%" height="227.9%" x="-52.6%" y="-63.9%" filterUnits="objectBoundingBox"><feGaussianBlur in="SourceGraphic" stdDeviation="14"/></filter><filter id="filter-6" width="123.3%" height="121.1%" x="-11.6%" y="-10.6%" filterUnits="objectBoundingBox"><feGaussianBlur in="SourceGraphic" stdDeviation="5"/></filter><filter id="filter-7" width="119.9%" height="122.1%" x="-9.9%" y="-11%" filterUnits="objectBoundingBox"><feGaussianBlur in="SourceGraphic" stdDeviation="5"/></filter><path id="path-8" d="M116,0 C160.566925,0 199.26374,25.1329314 218.690237,61.9985868 L224,62 C270.944204,62 309,100.055796 309,147 C309,193.944204 270.944204,232 224,232 L126,232 C124.4503,232 122.910287,231.958528 121.381008,231.876634 C119.597956,231.958829 117.803786,232 116,232 C51.934969,232 0,180.065031 0,116 C0,51.934969 51.934969,0 116,0 Z"/><filter id="filter-10" width="117.5%" height="123.3%" x="-8.7%" y="-11.6%" filterUnits="objectBoundingBox"><feGaussianBlur in="SourceGraphic" stdDeviation="9"/></filter><filter id="filter-11" width="177.6%" height="197.5%" x="-38.8%" y="-48.8%" filterUnits="objectBoundingBox"><feGaussianBlur in="SourceGraphic" stdDeviation="30"/></filter><filter id="filter-12" width="205.3%" height="232.4%" x="-52.7%" y="-66.2%" filterUnits="objectBoundingBox"><feGaussianBlur in="SourceGraphic" stdDeviation="30"/></filter><filter id="filter-13" width="247.7%" height="425.4%" x="-73.8%" y="-162.7%" filterUnits="objectBoundingBox"><feGaussianBlur in="SourceGraphic" stdDeviation="32"/></filter><filter id="filter-14" width="147.5%" height="179.8%" x="-23.7%" y="-39.9%" filterUnits="objectBoundingBox"><feGaussianBlur in="SourceGraphic" stdDeviation="23"/></filter><path id="path-15" d="M116,0 C160.566925,0 199.26374,25.1329314 218.690237,61.9985868 L224,62 C270.944204,62 309,100.055796 309,147 C309,193.944204 270.944204,232 224,232 L126,232 C124.4503,232 122.910287,231.958528 121.381008,231.876634 C119.597956,231.958829 117.803786,232 116,232 C51.934969,232 0,180.065031 0,116 C0,51.934969 51.934969,0 116,0 Z"/><filter id="filter-16" width="116.5%" height="122%" x="-8.3%" y="-11%" filterUnits="objectBoundingBox"><feGaussianBlur in="SourceAlpha" result="shadowBlurInner1" stdDeviation="25"/><feOffset dx="0" dy="1" in="shadowBlurInner1" result="shadowOffsetInner1"/><feComposite in="shadowOffsetInner1" in2="SourceAlpha" k2="-1" k3="1" operator="arithmetic" result="shadowInnerInner1"/><feColorMatrix in="shadowInnerInner1" type="matrix" values="0 0 0 0 1 0 0 0 0 1 0 0 0 0 1 0 0 0 1 0"/></filter></defs><g id="页面-1" fill="none" fill-rule="evenodd" stroke="none" stroke-width="1"><g id="画板" transform="translate(-90.000000, -111.000000)"><g id="编组" transform="translate(90.000000, 111.000000)"><g id="太阳" transform="translate(155.000000, 0.000000)"><mask id="mask-3" fill="#fff"><use xlink:href="#path-2"/></mask><use id="蒙版" fill="url(#linearGradient-1)" xlink:href="#path-2"/><path id="路径-4" fill="#FFF" d="M77,123.891263 C94.7703868,105.726468 111.29342,88.8777457 126.569099,73.3450958 L129.988028,73.3450958 L138,88.539485 L148.998721,112.916162 L113.834246,129.37242 C71.5076952,143.88311 59.2296132,142.056058 77,123.891263 Z" filter="url(#filter-4)" mask="url(#mask-3)" opacity=".4"/><path id="路径-4" fill="#FFF" d="M84,136.891263 C101.770387,118.726468 118.29342,101.877746 133.569099,86.3450958 L136.988028,86.3450958 L145,101.539485 L155.998721,125.916162 L120.834246,142.37242 C78.5076952,156.88311 66.2296132,155.056058 84,136.891263 Z" filter="url(#filter-5)" mask="url(#mask-3)" opacity=".8"/><ellipse id="椭圆形" cx="1.5" cy="103" fill="#000" filter="url(#filter-6)" mask="url(#mask-3)" opacity=".08" rx="64.5" ry="71"/><ellipse id="椭圆形" cx="75.5" cy="145" fill="#000" filter="url(#filter-7)" mask="url(#mask-3)" opacity=".08" rx="75.5" ry="68"/></g><g id="云朵" transform="translate(0.000000, 19.000000)"><mask id="mask-9" fill="#fff"><use xlink:href="#path-8"/></mask><use id="蒙版" fill="#FFF" xlink:href="#path-8"/><path id="椭圆形-2" fill="#000" d="M116,0 C160.566925,0 199.26374,25.1329314 218.690237,61.9985868 L224,62 C270.944204,62 309,100.055796 309,147 C309,193.944204 270.944204,232 224,232 L126,232 C124.4503,232 122.910287,231.958528 121.381008,231.876634 C119.597956,231.958829 117.803786,232 116,232 C51.934969,232 0,180.065031 0,116 C0,51.934969 51.934969,0 116,0 Z" filter="url(#filter-10)" mask="url(#mask-9)" opacity=".304"/><path id="椭圆形" fill="#FFF" d="M112.980229,176.613615 C164.416576,171.349451 212.639968,140.400482 213.528149,83.3291825 C213.537209,82.747071 213.528149,75.0754248 213.528149,74.4892044 C213.528149,16.4288435 160.78424,-7.29025974 102.723879,-7.29025974 C44.6635183,-7.29025974 14.6671814,23.4595613 -13.6327423,89.8160504 C-41.932666,156.172539 61.0192452,181.931473 112.980229,176.613615 Z" filter="url(#filter-11)" mask="url(#mask-9)"/><path id="椭圆形" fill="#FFF" d="M239.272131,315.135589 C277.17073,311.256922 312.702006,288.453541 313.356423,246.403076 C313.363098,245.974173 313.356423,240.321659 313.356423,239.889729 C313.356423,197.110517 274.494404,179.634144 231.715193,179.634144 C188.935981,179.634144 166.834506,202.290791 145.982958,251.182638 C125.131409,300.074485 200.986976,319.053817 239.272131,315.135589 Z" filter="url(#filter-12)" mask="url(#mask-9)" opacity=".68"/><rect id="矩形" width="130" height="59" x="116" y="141" fill="#000" filter="url(#filter-13)" mask="url(#mask-9)" opacity=".2"/><path id="矩形" fill="#000" d="M-18.4678243,99.4490995 L50.2204619,126.730751 C60.4166894,137.66981 79.1140497,140.166049 106.312543,134.219468 C133.511036,128.272886 169.250913,113.874683 213.532176,91.0248589 C241.379415,90.5682642 258.781997,93.3763444 265.739922,99.4490995 C272.697848,105.521855 273.978824,117.111977 269.582851,134.219468 L246,200 L41,263.877993 L-18.4678243,99.4490995 Z" filter="url(#filter-14)" mask="url(#mask-9)" opacity=".1"/><g id="椭圆形-2" mask="url(#mask-9)" opacity=".024"><use fill="#000" fill-rule="evenodd" xlink:href="#path-15"/><use fill="#000" fill-opacity="1" filter="url(#filter-16)" xlink:href="#path-15"/></g></g></g></g></g></svg>